<mxfile host="Electron" agent="Mozilla/5.0 (Windows NT 10.0; Win64; x64) AppleWebKit/537.36 (KHTML, like Gecko) draw.io/24.7.5 Chrome/126.0.6478.183 Electron/31.3.0 Safari/537.36" version="24.7.5">
  <diagram name="第 1 页" id="I7NmfDSBfj423RJmnGep">
    <mxGraphModel dx="1036" dy="614" grid="0" gridSize="10" guides="1" tooltips="1" connect="1" arrows="1" fold="1" page="1" pageScale="1" pageWidth="827" pageHeight="1169" math="0" shadow="0">
      <root>
        <mxCell id="0" />
        <mxCell id="1" parent="0" />
        <mxCell id="JjV5_aC4wQjnpTCrRYm4-1" value="启动服务器，绑定端口" style="rounded=0;whiteSpace=wrap;html=1;" vertex="1" parent="1">
          <mxGeometry x="94" y="190" width="120" height="60" as="geometry" />
        </mxCell>
        <mxCell id="JjV5_aC4wQjnpTCrRYm4-2" value="开始" style="ellipse;whiteSpace=wrap;html=1;" vertex="1" parent="1">
          <mxGeometry x="94" y="57" width="120" height="80" as="geometry" />
        </mxCell>
        <mxCell id="JjV5_aC4wQjnpTCrRYm4-4" value="监听客户端连接请求&lt;span style=&quot;color: rgba(0, 0, 0, 0); font-family: monospace; font-size: 0px; text-align: start; text-wrap: nowrap;&quot;&gt;3CmxGraphModel%3E%3Croot%3E%3CmxCell%20id%3D%220%22%2F%3E%3CmxCell%20id%3D%221%22%20parent%3D%220%22%2F%3E%3CmxCell%20id%3D%222%22%20value%3D%22%E5%90%AF%E5%8A%A8%E6%9C%8D%E5%8A%A1%E5%99%A8%EF%BC%8C%E7%BB%91%E5%AE%9A%E7%AB%AF%E5%8F%A3%22%20style%3D%22rounded%3D0%3BwhiteSpace%3Dwrap%3Bhtml%3D1%3B%22%20vertex%3D%221%22%20parent%3D%221%22%3E%3CmxGeometry%20x%3D%2294%22%20y%3D%22190%22%20width%3D%22120%22%20height%3D%2260%22%20as%3D%22geometry%22%2F%3E%3C%2FmxCell%3E%3C%2Froot%3E%3C%2FmxGraphModel%3E&lt;/span&gt;" style="rounded=0;whiteSpace=wrap;html=1;" vertex="1" parent="1">
          <mxGeometry x="94" y="298" width="120" height="60" as="geometry" />
        </mxCell>
        <mxCell id="JjV5_aC4wQjnpTCrRYm4-5" value="接收到客户端连接请求、创建新线程处理请求" style="rounded=0;whiteSpace=wrap;html=1;" vertex="1" parent="1">
          <mxGeometry x="94" y="393" width="120" height="60" as="geometry" />
        </mxCell>
        <mxCell id="JjV5_aC4wQjnpTCrRYm4-6" value="继续监听新的客户端请求" style="rounded=0;whiteSpace=wrap;html=1;" vertex="1" parent="1">
          <mxGeometry x="94" y="501" width="120" height="60" as="geometry" />
        </mxCell>
        <mxCell id="JjV5_aC4wQjnpTCrRYm4-7" value="" style="endArrow=classic;html=1;rounded=0;" edge="1" parent="1">
          <mxGeometry width="50" height="50" relative="1" as="geometry">
            <mxPoint x="156" y="140" as="sourcePoint" />
            <mxPoint x="156" y="187" as="targetPoint" />
          </mxGeometry>
        </mxCell>
        <mxCell id="JjV5_aC4wQjnpTCrRYm4-8" value="" style="endArrow=classic;html=1;rounded=0;" edge="1" parent="1">
          <mxGeometry width="50" height="50" relative="1" as="geometry">
            <mxPoint x="153.5" y="250" as="sourcePoint" />
            <mxPoint x="153.5" y="297" as="targetPoint" />
          </mxGeometry>
        </mxCell>
        <mxCell id="JjV5_aC4wQjnpTCrRYm4-9" value="" style="endArrow=classic;html=1;rounded=0;" edge="1" parent="1">
          <mxGeometry width="50" height="50" relative="1" as="geometry">
            <mxPoint x="153.5" y="356" as="sourcePoint" />
            <mxPoint x="153.5" y="395" as="targetPoint" />
          </mxGeometry>
        </mxCell>
        <mxCell id="JjV5_aC4wQjnpTCrRYm4-10" value="" style="endArrow=classic;html=1;rounded=0;" edge="1" parent="1">
          <mxGeometry width="50" height="50" relative="1" as="geometry">
            <mxPoint x="153.41" y="453" as="sourcePoint" />
            <mxPoint x="153.41" y="500" as="targetPoint" />
          </mxGeometry>
        </mxCell>
        <mxCell id="JjV5_aC4wQjnpTCrRYm4-11" value="开始" style="ellipse;whiteSpace=wrap;html=1;" vertex="1" parent="1">
          <mxGeometry x="404" y="57" width="120" height="80" as="geometry" />
        </mxCell>
        <mxCell id="JjV5_aC4wQjnpTCrRYm4-12" value="客户端线程启动，接收请求" style="rounded=0;whiteSpace=wrap;html=1;" vertex="1" parent="1">
          <mxGeometry x="404" y="185" width="120" height="60" as="geometry" />
        </mxCell>
        <mxCell id="JjV5_aC4wQjnpTCrRYm4-26" value="" style="edgeStyle=orthogonalEdgeStyle;rounded=0;orthogonalLoop=1;jettySize=auto;html=1;" edge="1" parent="1" source="JjV5_aC4wQjnpTCrRYm4-13" target="JjV5_aC4wQjnpTCrRYm4-14">
          <mxGeometry relative="1" as="geometry" />
        </mxCell>
        <mxCell id="JjV5_aC4wQjnpTCrRYm4-13" value="解析请求，提取文件名" style="rounded=0;whiteSpace=wrap;html=1;" vertex="1" parent="1">
          <mxGeometry x="404" y="301" width="120" height="60" as="geometry" />
        </mxCell>
        <mxCell id="JjV5_aC4wQjnpTCrRYm4-14" value="文件是否在缓存中？" style="rhombus;whiteSpace=wrap;html=1;" vertex="1" parent="1">
          <mxGeometry x="403.5" y="403" width="121" height="80" as="geometry" />
        </mxCell>
        <mxCell id="JjV5_aC4wQjnpTCrRYm4-15" value="文件存在于缓存、从缓存读取并返回" style="rounded=0;whiteSpace=wrap;html=1;" vertex="1" parent="1">
          <mxGeometry x="404" y="518" width="120" height="60" as="geometry" />
        </mxCell>
        <mxCell id="JjV5_aC4wQjnpTCrRYm4-16" value="文件不存在于缓存、创建新Socket连接目标服务器" style="rounded=0;whiteSpace=wrap;html=1;" vertex="1" parent="1">
          <mxGeometry x="599" y="518" width="120" height="60" as="geometry" />
        </mxCell>
        <mxCell id="JjV5_aC4wQjnpTCrRYm4-17" value="转发客户端请求到目标服务器" style="rounded=0;whiteSpace=wrap;html=1;" vertex="1" parent="1">
          <mxGeometry x="599" y="401" width="120" height="60" as="geometry" />
        </mxCell>
        <mxCell id="JjV5_aC4wQjnpTCrRYm4-18" value="接收目标服务器的响应&amp;nbsp; &amp;nbsp;" style="rounded=0;whiteSpace=wrap;html=1;" vertex="1" parent="1">
          <mxGeometry x="599" y="185" width="120" height="60" as="geometry" />
        </mxCell>
        <mxCell id="JjV5_aC4wQjnpTCrRYm4-19" value="返回响应给客户端，缓存响应" style="rounded=0;whiteSpace=wrap;html=1;" vertex="1" parent="1">
          <mxGeometry x="599" y="301" width="120" height="60" as="geometry" />
        </mxCell>
        <mxCell id="JjV5_aC4wQjnpTCrRYm4-20" value="结束" style="ellipse;whiteSpace=wrap;html=1;" vertex="1" parent="1">
          <mxGeometry x="599" y="63" width="120" height="80" as="geometry" />
        </mxCell>
        <mxCell id="JjV5_aC4wQjnpTCrRYm4-22" value="" style="endArrow=classic;html=1;rounded=0;" edge="1" parent="1">
          <mxGeometry width="50" height="50" relative="1" as="geometry">
            <mxPoint x="463.58" y="137" as="sourcePoint" />
            <mxPoint x="463.58" y="184" as="targetPoint" />
          </mxGeometry>
        </mxCell>
        <mxCell id="JjV5_aC4wQjnpTCrRYm4-23" value="" style="endArrow=classic;html=1;rounded=0;" edge="1" parent="1">
          <mxGeometry width="50" height="50" relative="1" as="geometry">
            <mxPoint x="466" y="245" as="sourcePoint" />
            <mxPoint x="466" y="300" as="targetPoint" />
          </mxGeometry>
        </mxCell>
        <mxCell id="JjV5_aC4wQjnpTCrRYm4-24" value="" style="endArrow=classic;html=1;rounded=0;" edge="1" parent="1">
          <mxGeometry width="50" height="50" relative="1" as="geometry">
            <mxPoint x="463.58" y="358" as="sourcePoint" />
            <mxPoint x="463.58" y="405" as="targetPoint" />
          </mxGeometry>
        </mxCell>
        <mxCell id="JjV5_aC4wQjnpTCrRYm4-27" value="" style="endArrow=classic;html=1;rounded=0;" edge="1" parent="1">
          <mxGeometry width="50" height="50" relative="1" as="geometry">
            <mxPoint x="463.65999999999997" y="483" as="sourcePoint" />
            <mxPoint x="464" y="522" as="targetPoint" />
          </mxGeometry>
        </mxCell>
        <mxCell id="JjV5_aC4wQjnpTCrRYm4-28" value="" style="endArrow=none;html=1;rounded=0;" edge="1" parent="1">
          <mxGeometry width="50" height="50" relative="1" as="geometry">
            <mxPoint x="524" y="442.65999999999997" as="sourcePoint" />
            <mxPoint x="554" y="443" as="targetPoint" />
          </mxGeometry>
        </mxCell>
        <mxCell id="JjV5_aC4wQjnpTCrRYm4-29" value="" style="endArrow=none;html=1;rounded=0;" edge="1" parent="1">
          <mxGeometry width="50" height="50" relative="1" as="geometry">
            <mxPoint x="553" y="442.65999999999997" as="sourcePoint" />
            <mxPoint x="553" y="536" as="targetPoint" />
          </mxGeometry>
        </mxCell>
        <mxCell id="JjV5_aC4wQjnpTCrRYm4-30" value="" style="endArrow=classic;html=1;rounded=0;" edge="1" parent="1">
          <mxGeometry width="50" height="50" relative="1" as="geometry">
            <mxPoint x="552" y="536" as="sourcePoint" />
            <mxPoint x="599" y="536" as="targetPoint" />
          </mxGeometry>
        </mxCell>
        <mxCell id="JjV5_aC4wQjnpTCrRYm4-31" value="" style="endArrow=classic;html=1;rounded=0;" edge="1" parent="1">
          <mxGeometry width="50" height="50" relative="1" as="geometry">
            <mxPoint x="654" y="518" as="sourcePoint" />
            <mxPoint x="654" y="462" as="targetPoint" />
          </mxGeometry>
        </mxCell>
        <mxCell id="JjV5_aC4wQjnpTCrRYm4-32" value="" style="endArrow=classic;html=1;rounded=0;" edge="1" parent="1">
          <mxGeometry width="50" height="50" relative="1" as="geometry">
            <mxPoint x="655" y="403" as="sourcePoint" />
            <mxPoint x="655" y="361" as="targetPoint" />
          </mxGeometry>
        </mxCell>
        <mxCell id="JjV5_aC4wQjnpTCrRYm4-33" value="" style="endArrow=classic;html=1;rounded=0;" edge="1" parent="1">
          <mxGeometry width="50" height="50" relative="1" as="geometry">
            <mxPoint x="655" y="301" as="sourcePoint" />
            <mxPoint x="655" y="247" as="targetPoint" />
          </mxGeometry>
        </mxCell>
        <mxCell id="JjV5_aC4wQjnpTCrRYm4-34" value="" style="endArrow=classic;html=1;rounded=0;" edge="1" parent="1">
          <mxGeometry width="50" height="50" relative="1" as="geometry">
            <mxPoint x="655" y="185" as="sourcePoint" />
            <mxPoint x="655" y="143" as="targetPoint" />
          </mxGeometry>
        </mxCell>
        <mxCell id="JjV5_aC4wQjnpTCrRYm4-35" value="yes" style="text;html=1;align=center;verticalAlign=middle;whiteSpace=wrap;rounded=0;" vertex="1" parent="1">
          <mxGeometry x="424" y="483" width="60" height="30" as="geometry" />
        </mxCell>
        <mxCell id="JjV5_aC4wQjnpTCrRYm4-36" value="no" style="text;html=1;align=center;verticalAlign=middle;whiteSpace=wrap;rounded=0;" vertex="1" parent="1">
          <mxGeometry x="534" y="468" width="60" height="30" as="geometry" />
        </mxCell>
      </root>
    </mxGraphModel>
  </diagram>
</mxfile>
